<?xml version="1.0" encoding="utf-8"?>
<!-- Generator: Adobe Illustrator 27.7.0, SVG Export Plug-In . SVG Version: 6.00 Build 0)  -->
<svg version="1.1" xmlns="http://www.w3.org/2000/svg" xmlns:xlink="http://www.w3.org/1999/xlink" x="0px" y="0px"
	 viewBox="0 0 75 60" style="enable-background:new 0 0 75 60;" xml:space="preserve">
<style type="text/css">
	.st0{fill:#A7BEA8;}
	.st1{display:none;}
	.st2{display:inline;}
	
		.st3{display:inline;fill:none;stroke:#A7BEA8;stroke-width:5.6693;stroke-linecap:round;stroke-linejoin:round;stroke-miterlimit:10;}
	.st4{display:inline;fill:#A7BEA8;}
	.st5{display:inline;fill:#F09A4A;}
	.st6{display:inline;fill:#87C53E;}
</style>
<g id="레이어_1">
	<path class="st0" d="M68.3,49.5c3.1,0,5.7-2.5,5.7-5.7V5.6C74,2.5,71.4,0,68.3,0H7C3.9,0,1.3,2.5,1.3,5.6v38.2
		c0,3.1,2.5,5.7,5.7,5.7h27.5v4.8H4c-1.6,0-2.8,1.3-2.8,2.8s1.3,2.8,2.8,2.8h67.1c1.6,0,2.8-1.3,2.8-2.8s-1.3-2.8-2.8-2.8h-31v-4.8
		H68.3z M7,5.6h61.3v38.2H7V5.6z"/>
</g>
<g id="레이어_2" class="st1">
	<g class="st2">
		<path class="st0" d="M36.8,5.8c0,0,7.5,3.8,11.6,7.2c7,5.9,14.1,12.2,13.6,22.9c-0.4,8.3-9.2,18.4-24.5,18.4c-0.1,0-0.1,0-0.2,0
			c-15.4-0.1-27-10.6-25-21.3c2-10.6,13.1-15.9,19.4-21.9C35.4,7.5,36.8,5.8,36.8,5.8 M36.8,0.1c-1.7,0-3.4,0.8-4.5,2.3
			C32.2,2.4,30.9,4,27.7,7c-1.4,1.4-3.3,2.8-5.2,4.2C16.3,16,8.6,22,6.7,32c-1.1,5.8,0.6,11.7,4.7,16.7c5.7,7,15.4,11.2,25.8,11.2
			l0.2,0C48,60,55,55.9,58.9,52.5c5.2-4.5,8.4-10.4,8.6-16.4C68.2,22.3,58.8,14.4,52,8.6c-4.4-3.7-11.8-7.5-12.6-7.9
			C38.5,0.3,37.6,0.1,36.8,0.1L36.8,0.1z"/>
	</g>
	<path class="st3" d="M56.4,35.4c0,0-1.1,4.7-5.1,8.4c-4.3,4-11.1,4.5-11.1,4.5"/>
</g>
<g id="레이어_3" class="st1">
	
		<image style="display:inline;overflow:visible;" width="1940" height="974" xlink:href="../../../../../Desktop/스크린샷 2023-08-10 오전 10.37.47.png"  transform="matrix(5.531766e-02 0 0 5.561171e-02 10.1679 -2.019103e-02)">
	</image>
</g>
<g id="레이어_4" class="st1">
	<g class="st2">
		<path class="st0" d="M40.2,28.4l-0.1-16.8c0-6.2-5.1-11.3-11.3-11.3c-6.2,0-11.3,5.1-11.3,11.3l0.1,16.7c-4,3.3-6.6,8.2-6.6,13.8
			C11,52,19,60,28.9,60s17.8-8,17.8-17.8C46.7,36.6,44.2,31.7,40.2,28.4z M28.9,54.3c-6.7,0-12.2-5.5-12.2-12.2
			c0-4.7,2.6-8.7,6.5-10.7h0.1l-0.1-19.8c0-3.1,2.5-5.6,5.6-5.6c3.1,0,5.6,2.5,5.6,5.6l0,13.6c0,0,0,0,0,0v6.2
			c3.9,2,6.5,6.1,6.5,10.7C41,48.8,35.6,54.3,28.9,54.3z"/>
		<path class="st0" d="M30.3,35.4v-3.6c0-0.8-0.6-1.4-1.4-1.4s-1.4,0.6-1.4,1.4v3.6c-3.4,0.7-5.9,3.6-5.9,7.2v0
			c0,4.1,3.3,7.3,7.3,7.3c4.1,0,7.3-3.3,7.3-7.3v0C36.2,39,33.7,36,30.3,35.4z"/>
	</g>
	<g class="st2">
		<path class="st0" d="M54.8,6c1.6,0,2.9,1.3,2.9,2.9c0,1.6-1.3,2.9-2.9,2.9c-1.6,0-2.9-1.3-2.9-2.9C51.9,7.3,53.2,6,54.8,6
			 M54.8,0.3L54.8,0.3c-4.7,0-8.6,3.8-8.6,8.6v0c0,4.7,3.8,8.6,8.6,8.6h0c4.7,0,8.6-3.8,8.6-8.6v0C63.4,4.1,59.6,0.3,54.8,0.3
			L54.8,0.3z"/>
	</g>
</g>
<g id="레이어_5" class="st1">
	<path class="st4" d="M32.5,0.4c-11,0-19.9,8.9-19.9,19.9c0,1.2,0.1,2.4,0.3,3.5c1.6-1.1,3.5-1.8,5.4-2.3c0-0.4-0.1-0.8-0.1-1.2
		c0-7.9,6.4-14.3,14.3-14.3c5.5,0,10.2,3.1,12.6,7.6c1.9-0.8,3.8-1.2,5.7-1.3C47.6,5.4,40.6,0.4,32.5,0.4z"/>
	<path class="st4" d="M60.8,16c-2.3-2.3-5.6-3.6-9.2-3.6h0c-0.3,0-0.6,0-0.9,0c0.8,1.8,1.3,3.7,1.5,5.6c1.8,0.1,3.3,0.8,4.5,1.9
		c1.5,1.5,2.1,3.6,1.9,5.9c2,0.5,3.8,1.3,5.4,2.5C65,23.7,64,19.2,60.8,16z"/>
	<path class="st4" d="M14.8,29.4c1.5-1.2,3.2-2,5.1-2.5c-0.9-1.7-1.4-3.5-1.6-5.4c-1.9,0.5-3.8,1.3-5.4,2.3
		C13.2,25.8,13.9,27.7,14.8,29.4z"/>
	<g class="st2">
		<path class="st0" d="M55.1,52.6h-32v0c-0.1,0-0.1,0-0.2,0c-7.2,0-13-5.8-13-13c0-4.1,1.9-7.7,4.9-10.1c-0.9-1.7-1.5-3.6-1.9-5.6
			C7.7,27.2,4.2,33,4.2,39.6c0,10.3,8.4,18.7,18.7,18.7c4.2,0,32.6,0,32.6,0L55.1,52.6z"/>
		<path class="st0" d="M16,28.6c0,0-0.1,0.1-0.1,0.1C15.9,28.6,16,28.6,16,28.6z"/>
		<path class="st0" d="M18.5,27.4C18.5,27.4,18.5,27.4,18.5,27.4C18.5,27.4,18.5,27.4,18.5,27.4z"/>
		<path class="st0" d="M17.2,27.9c0,0-0.1,0-0.1,0.1C17.1,27.9,17.2,27.9,17.2,27.9z"/>
		<polygon class="st0" points="12.9,23.8 12.9,23.8 12.9,23.8 		"/>
		<path class="st0" d="M19.9,26.9L19.9,26.9c-0.5,0.1-0.9,0.2-1.3,0.4C18.9,27.2,19.4,27.1,19.9,26.9z"/>
		<path class="st0" d="M18.4,27.4c-0.4,0.2-0.8,0.3-1.2,0.5C17.6,27.7,18,27.5,18.4,27.4z"/>
		<path class="st0" d="M14.8,29.4c0.4-0.3,0.7-0.5,1.1-0.8C15.5,28.9,15.1,29.2,14.8,29.4L14.8,29.4z"/>
		<path class="st0" d="M17.1,28c-0.4,0.2-0.7,0.4-1.1,0.6C16.4,28.3,16.7,28.1,17.1,28z"/>
	</g>
	<path class="st4" d="M56.9,31.3c1.9,0.4,3.6,1.3,5,2.6c1-1.8,1.7-3.7,2.1-5.6c-1.6-1.1-3.4-2-5.4-2.5C58.6,27.6,58,29.5,56.9,31.3z
		"/>
	<g class="st2">
		<path class="st0" d="M59.7,32.3C59.7,32.3,59.7,32.3,59.7,32.3C59.7,32.3,59.7,32.3,59.7,32.3z"/>
		<path class="st0" d="M64.1,28.4c-0.4,1.9-1.1,3.8-2.1,5.6l0,0c2.1,2,3.4,4.7,3.4,7.9c0,5.8-4.6,10.5-10.3,10.7v0H42.3
			c3,3.5,7.4,5.7,12.4,5.7c9.1,0,16.4-7.4,16.4-16.4C71.1,36.2,68.3,31.3,64.1,28.4z"/>
		<path class="st0" d="M61.5,26.9C61.5,26.9,61.6,26.9,61.5,26.9C61.6,26.9,61.5,26.9,61.5,26.9z"/>
	</g>
	<path class="st4" d="M60.8,16c-2.3-2.3-5.6-3.6-9.2-3.6h0c-0.3,0-0.6,0-0.9,0c0.8,1.8,1.3,3.7,1.5,5.6c1.8,0.1,3.3,0.8,4.5,1.9
		c1.5,1.5,2.1,3.6,1.9,5.9c2,0.5,3.8,1.3,5.4,2.5C65,23.7,64,19.2,60.8,16z"/>
	<g class="st2">
		<path class="st0" d="M52.3,18c0,0.2,0,0.5,0.1,0.7C52.3,18.5,52.3,18.3,52.3,18z"/>
		<path class="st0" d="M51.6,18c0.2,0,0.4,0,0.7,0C51.1,8.1,42.7,0.4,32.5,0.4c-11,0-19.9,8.9-19.9,19.9c0,1.2,0.1,2.4,0.3,3.5
			c1.6-1.1,3.5-1.8,5.4-2.3c0-0.4-0.1-0.8-0.1-1.2c0-7.9,6.4-14.3,14.3-14.3c7.5,0,13.6,5.8,14.2,13.1C48.3,18.4,50,18,51.6,18z"/>
	</g>
	<path class="st4" d="M60.8,16c-2.3-2.3-5.6-3.6-9.2-3.6h0c-0.3,0-0.6,0-0.9,0c0.8,1.8,1.3,3.7,1.5,5.6c1.8,0.1,3.3,0.8,4.5,1.9
		c1.5,1.5,2.1,3.6,1.9,5.9c2,0.5,3.8,1.3,5.4,2.5C65,23.7,64,19.2,60.8,16z"/>
	<path class="st4" d="M32.5,0.4c-11,0-19.9,8.9-19.9,19.9c0,1.2,0.1,2.4,0.3,3.5c1.6-1.1,3.5-1.8,5.4-2.3c0-0.4-0.1-0.8-0.1-1.2
		c0-7.9,6.4-14.3,14.3-14.3c5.5,0,10.2,3.1,12.6,7.6c1.9-0.8,3.8-1.2,5.7-1.3C47.6,5.4,40.6,0.4,32.5,0.4z"/>
	<g class="st2">
		<path class="st0" d="M31.5,45.1c0,0.1,0,0.3,0,0.4c0,0.1,0,0.2,0,0.3s-0.1,0.2-0.1,0.2c0,0.1-0.1,0.1-0.2,0.2s-0.3,0.2-0.6,0.4
			c-0.3,0.2-0.7,0.4-1.1,0.5s-0.9,0.3-1.5,0.5c-0.6,0.1-1.2,0.2-1.8,0.2c-1.1,0-2.2-0.2-3.1-0.6c-0.9-0.4-1.7-0.9-2.4-1.7
			s-1.2-1.7-1.5-2.8c-0.4-1.1-0.5-2.4-0.5-3.8c0-1.5,0.2-2.8,0.6-3.9s0.9-2.1,1.6-2.9c0.7-0.8,1.5-1.4,2.5-1.8c1-0.4,2-0.6,3.2-0.6
			c0.5,0,1,0,1.5,0.1c0.5,0.1,0.9,0.2,1.3,0.4c0.4,0.1,0.8,0.3,1.1,0.5c0.3,0.2,0.5,0.3,0.7,0.5s0.2,0.2,0.2,0.3s0.1,0.1,0.1,0.2
			s0,0.2,0.1,0.3c0,0.1,0,0.3,0,0.4c0,0.2,0,0.3,0,0.5c0,0.1,0,0.2-0.1,0.3c0,0.1-0.1,0.2-0.1,0.2c-0.1,0-0.1,0.1-0.2,0.1
			c-0.1,0-0.3-0.1-0.5-0.3c-0.2-0.2-0.5-0.4-0.9-0.6c-0.4-0.2-0.8-0.4-1.3-0.6c-0.5-0.2-1.1-0.3-1.9-0.3c-0.8,0-1.5,0.2-2.1,0.5
			c-0.6,0.3-1.2,0.8-1.7,1.4c-0.5,0.6-0.8,1.4-1.1,2.2c-0.3,0.9-0.4,1.9-0.4,3c0,1.1,0.1,2.1,0.4,3c0.2,0.9,0.6,1.6,1,2.2
			c0.5,0.6,1,1,1.7,1.3c0.7,0.3,1.4,0.4,2.2,0.4c0.7,0,1.3-0.1,1.8-0.3c0.5-0.2,1-0.4,1.3-0.6c0.4-0.2,0.7-0.4,0.9-0.6
			c0.2-0.2,0.4-0.3,0.6-0.3c0.1,0,0.1,0,0.2,0s0.1,0.1,0.1,0.2c0,0.1,0,0.2,0.1,0.3C31.5,44.7,31.5,44.8,31.5,45.1z"/>
		<path class="st0" d="M49.2,38.5c0,1.4-0.2,2.7-0.5,3.9c-0.3,1.1-0.8,2.1-1.5,2.9c-0.7,0.8-1.5,1.4-2.5,1.9c-1,0.4-2.2,0.6-3.5,0.6
			c-1.3,0-2.5-0.2-3.4-0.6c-1-0.4-1.8-1-2.4-1.7c-0.6-0.8-1.1-1.7-1.4-2.8s-0.5-2.4-0.5-3.9c0-1.4,0.2-2.7,0.5-3.8
			c0.3-1.1,0.8-2.1,1.5-2.9c0.7-0.8,1.5-1.4,2.5-1.8c1-0.4,2.2-0.6,3.5-0.6c1.3,0,2.4,0.2,3.4,0.6c1,0.4,1.8,1,2.4,1.7
			s1.1,1.7,1.4,2.8C49,35.8,49.2,37.1,49.2,38.5z M46.7,38.7c0-1-0.1-1.9-0.3-2.8s-0.5-1.6-0.9-2.2c-0.4-0.6-1-1.1-1.7-1.5
			c-0.7-0.4-1.5-0.5-2.6-0.5c-1,0-1.9,0.2-2.6,0.6c-0.7,0.4-1.3,0.9-1.7,1.5c-0.4,0.6-0.7,1.4-0.9,2.2c-0.2,0.9-0.3,1.7-0.3,2.7
			c0,1,0.1,2,0.3,2.9c0.2,0.9,0.5,1.6,0.9,2.3c0.4,0.6,1,1.1,1.6,1.5s1.5,0.5,2.6,0.5c1,0,1.9-0.2,2.6-0.6c0.7-0.4,1.3-0.9,1.7-1.5
			c0.4-0.7,0.7-1.4,0.9-2.3C46.6,40.5,46.7,39.6,46.7,38.7z"/>
		<path class="st0" d="M56.9,46.3c0,0.1,0,0.2,0,0.2c0,0.1,0,0.1-0.1,0.2c0,0-0.1,0.1-0.1,0.1s-0.1,0-0.1,0h-5.2c-0.1,0-0.1,0-0.2,0
			s-0.1,0-0.1-0.1s-0.1-0.1-0.1-0.2s0-0.2,0-0.3c0-0.1,0-0.2,0-0.3c0-0.1,0-0.1,0-0.2c0-0.1,0.1-0.1,0.1-0.2c0-0.1,0.1-0.1,0.1-0.2
			l1.9-1.9c0.4-0.4,0.8-0.8,1-1.2c0.3-0.4,0.5-0.7,0.6-1c0.1-0.3,0.2-0.6,0.3-0.8s0.1-0.5,0.1-0.7s0-0.4-0.1-0.6
			c-0.1-0.2-0.2-0.3-0.3-0.5c-0.1-0.1-0.3-0.3-0.5-0.3c-0.2-0.1-0.4-0.1-0.7-0.1c-0.3,0-0.6,0-0.8,0.1c-0.2,0.1-0.5,0.2-0.6,0.3
			c-0.2,0.1-0.3,0.2-0.5,0.3c-0.1,0.1-0.2,0.1-0.3,0.1c0,0-0.1,0-0.1,0s0-0.1-0.1-0.1c0,0,0-0.1,0-0.2c0-0.1,0-0.2,0-0.3
			c0-0.1,0-0.1,0-0.2c0-0.1,0-0.1,0-0.1s0-0.1,0-0.1s0.1-0.1,0.1-0.1c0.1-0.1,0.2-0.1,0.3-0.2c0.1-0.1,0.3-0.2,0.5-0.3
			s0.5-0.2,0.7-0.2s0.5-0.1,0.8-0.1c0.5,0,0.8,0.1,1.2,0.2c0.3,0.1,0.6,0.3,0.8,0.5c0.2,0.2,0.4,0.5,0.5,0.8s0.2,0.6,0.2,0.9
			c0,0.3,0,0.6-0.1,0.9c-0.1,0.3-0.2,0.6-0.3,1c-0.2,0.3-0.4,0.7-0.7,1.1s-0.8,0.9-1.3,1.5l-1.5,1.5h4.1c0,0,0.1,0,0.1,0
			s0.1,0.1,0.1,0.1c0,0,0,0.1,0.1,0.2C56.9,46.1,56.9,46.2,56.9,46.3z"/>
	</g>
</g>
<g id="레이어_6" class="st1">
	<g class="st2">
		<path class="st0" d="M54.4,10.5c-8.1,0-14,8.1-17,13.4c-3-5.2-8.9-13.4-17-13.4c-10.7,0-19.5,8.7-19.5,19.5s8.7,19.5,19.5,19.5
			c8.1,0,14-8.1,17-13.4c3,5.2,8.9,13.4,17,13.4c10.7,0,19.5-8.7,19.5-19.5S65.1,10.5,54.4,10.5z M20.3,43.9
			c-7.7,0-13.9-6.2-13.9-13.9c0-7.7,6.2-13.9,13.9-13.9c7.7,0,13.9,13.9,13.9,13.9S28,43.9,20.3,43.9z M54.4,43.9
			c-7.7,0-13.9-13.9-13.9-13.9S46.7,16,54.4,16s13.9,6.2,13.9,13.9C68.3,37.6,62.1,43.9,54.4,43.9z"/>
		<path class="st0" d="M26,28.4h-4.8v-4.8c0-0.8-0.6-1.4-1.4-1.4s-1.4,0.6-1.4,1.4v4.8h-4.8c-0.8,0-1.4,0.6-1.4,1.4
			c0,0.8,0.6,1.4,1.4,1.4h4.8V36c0,0.8,0.6,1.4,1.4,1.4s1.4-0.6,1.4-1.4v-4.8H26c0.8,0,1.4-0.6,1.4-1.4C27.4,29,26.8,28.4,26,28.4z"
			/>
		<path class="st0" d="M61.2,28.4H48.8c-0.8,0-1.4,0.6-1.4,1.4c0,0.8,0.6,1.4,1.4,1.4h12.4c0.8,0,1.4-0.6,1.4-1.4
			C62.6,29,61.9,28.4,61.2,28.4z"/>
	</g>
</g>
<g id="레이어_7" class="st1">
	<path class="st5" d="M22.4,59.6L22.4,59.6c-6.6,0-11.9-5.3-11.9-11.9v-47h23.9v47C34.3,54.2,29,59.6,22.4,59.6z"/>
	<path class="st6" d="M51.6,59.6L51.6,59.6c-6.6,0-11.9-5.3-11.9-11.9v-47h23.9v47C63.5,54.2,58.1,59.6,51.6,59.6z"/>
</g>
<g id="레이어_8" class="st1">
	<g class="st2">
		<path class="st0" d="M37.8,14.8c2,0,3.9,0.4,5.7,1.1V7c0-3.1-2.5-5.7-5.7-5.7S32.1,3.9,32.1,7v9C33.9,15.2,35.8,14.8,37.8,14.8z"
			/>
		<path class="st0" d="M15,23.4l7.8,4.5c0.6-4,2.6-7.5,5.7-9.8l-7.8-4.5C18,12,14.5,13,12.9,15.7C11.4,18.4,12.3,21.9,15,23.4z"/>
		<path class="st0" d="M52.8,27.9l7.8-4.5c2.7-1.6,3.6-5,2.1-7.7c-1.6-2.7-5-3.6-7.7-2.1l-7.8,4.5C50.1,20.4,52.2,23.9,52.8,27.9z"
			/>
		<path class="st0" d="M60.6,36.6l-7.8-4.5c-0.6,4-2.6,7.5-5.7,9.8l7.8,4.5c0.9,0.5,1.9,0.8,2.8,0.8c2,0,3.9-1,4.9-2.8
			C64.2,41.7,63.3,38.2,60.6,36.6z"/>
		<path class="st0" d="M22.8,32.1L15,36.6c-2.7,1.6-3.6,5-2.1,7.7c1,1.8,3,2.8,4.9,2.8c1,0,1.9-0.2,2.8-0.8l7.8-4.5
			C25.4,39.6,23.3,36.1,22.8,32.1z"/>
		<path class="st0" d="M37.8,45.2c-2,0-3.9-0.4-5.7-1.1v9c0,3.1,2.5,5.7,5.7,5.7s5.7-2.5,5.7-5.7v-9C41.7,44.8,39.8,45.2,37.8,45.2z
			"/>
	</g>
	<circle class="st4" cx="37.8" cy="30" r="9.3"/>
</g>
</svg>
