<?xml version="1.0" encoding="utf-8"?>
<!-- Generator: Adobe Illustrator 27.7.0, SVG Export Plug-In . SVG Version: 6.00 Build 0)  -->
<svg version="1.1" xmlns="http://www.w3.org/2000/svg" xmlns:xlink="http://www.w3.org/1999/xlink" x="0px" y="0px"
	 viewBox="0 0 75 60" style="enable-background:new 0 0 75 60;" xml:space="preserve">
<style type="text/css">
	.st0{display:none;}
	.st1{display:inline;}
	.st2{fill:#A7BEA8;}
	.st3{fill:none;stroke:#A7BEA8;stroke-width:5.6693;stroke-linecap:round;stroke-miterlimit:10;}
	.st4{fill:none;stroke:#A7BEA8;stroke-width:5.6693;stroke-miterlimit:10;}
	
		.st5{display:inline;fill:none;stroke:#A7BEA8;stroke-width:5.6693;stroke-linecap:round;stroke-linejoin:round;stroke-miterlimit:10;}
</style>
<g id="레이어_1" class="st0">
	<g class="st1">
		<g>
			<path class="st2" d="M68.3,5.6v38.2H7V5.6H68.3 M68.3,0H7C3.9,0,1.3,2.5,1.3,5.6v38.2c0,3.1,2.5,5.7,5.7,5.7h61.3
				c3.1,0,5.7-2.5,5.7-5.7V5.6C74,2.5,71.4,0,68.3,0L68.3,0z"/>
		</g>
		<line class="st3" x1="4" y1="57.1" x2="71.1" y2="57.1"/>
		<line class="st4" x1="37.3" y1="57.8" x2="37.3" y2="46.6"/>
	</g>
</g>
<g id="레이어_2" class="st0">
	<g class="st1">
		<path class="st2" d="M36.8,5.8c0,0,7.5,3.8,11.6,7.2c7,5.9,14.1,12.2,13.6,22.9c-0.4,8.3-9.2,18.4-24.5,18.4c-0.1,0-0.1,0-0.2,0
			c-15.4-0.1-27-10.6-25-21.3c2-10.6,13.1-15.9,19.4-21.9C35.4,7.5,36.8,5.8,36.8,5.8 M36.8,0.1c-1.7,0-3.4,0.8-4.5,2.3
			C32.2,2.4,30.9,4,27.7,7c-1.4,1.4-3.3,2.8-5.2,4.2C16.3,16,8.6,22,6.7,32c-1.1,5.8,0.6,11.7,4.7,16.7c5.7,7,15.4,11.2,25.8,11.2
			l0.2,0C48,60,55,55.9,58.9,52.5c5.2-4.5,8.4-10.4,8.6-16.4C68.2,22.3,58.8,14.4,52,8.6c-4.4-3.7-11.8-7.5-12.6-7.9
			C38.5,0.3,37.6,0.1,36.8,0.1L36.8,0.1z"/>
	</g>
	<path class="st5" d="M56.4,35.4c0,0-1.1,4.7-5.1,8.4c-4.3,4-11.1,4.5-11.1,4.5"/>
</g>
<g id="레이어_3">
	
		<image style="overflow:visible;" width="1940" height="974" xlink:href="../../../../../Desktop/스크린샷 2023-08-10 오전 10.37.47.png"  transform="matrix(5.531766e-02 0 0 5.561171e-02 -15.793 2.5422)">
	</image>
</g>
<g id="레이어_4">
	<g>
		<path class="st2" d="M40.2,28.4l-0.1-16.8c0-6.2-5.1-11.3-11.3-11.3c-6.2,0-11.3,5.1-11.3,11.3l0.1,16.7c-4,3.3-6.6,8.2-6.6,13.8
			C11,52,19,60,28.9,60s17.8-8,17.8-17.8C46.7,36.6,44.2,31.7,40.2,28.4z M28.9,54.3c-6.7,0-12.2-5.5-12.2-12.2
			c0-4.7,2.6-8.7,6.5-10.7h0.1l-0.1-19.8c0-3.1,2.5-5.6,5.6-5.6c3.1,0,5.6,2.5,5.6,5.6l0,13.6c0,0,0,0,0,0v6.2
			c3.9,2,6.5,6.1,6.5,10.7C41,48.8,35.6,54.3,28.9,54.3z"/>
		<path class="st2" d="M30.3,35.4v-3.6c0-0.8-0.6-1.4-1.4-1.4s-1.4,0.6-1.4,1.4v3.6c-3.4,0.7-5.9,3.6-5.9,7.2v0
			c0,4.1,3.3,7.3,7.3,7.3c4.1,0,7.3-3.3,7.3-7.3v0C36.2,39,33.7,36,30.3,35.4z"/>
	</g>
	<g>
		<path class="st2" d="M54.8,6c1.6,0,2.9,1.3,2.9,2.9c0,1.6-1.3,2.9-2.9,2.9c-1.6,0-2.9-1.3-2.9-2.9C51.9,7.3,53.2,6,54.8,6
			 M54.8,0.3L54.8,0.3c-4.7,0-8.6,3.8-8.6,8.6v0c0,4.7,3.8,8.6,8.6,8.6h0c4.7,0,8.6-3.8,8.6-8.6v0C63.4,4.1,59.6,0.3,54.8,0.3
			L54.8,0.3z"/>
	</g>
</g>
</svg>
